Coordinates
version=1
nRows=49
nColumns=6
inDegrees=yes

Units are S.I. units (second, meters, Newtons, ...)
If the header above contains a line with 'inDegrees', this indicates whether rotational values are in degrees (yes) or radians (no).

endheader
time	foot_tx	hip_flexion_r	knee_angle_r	ankle_angle_r	lumbar
     20.80000000	      0.20180546	     65.31372540	    -73.48227969	      2.14186858	    -16.78172846
     20.81000000	      0.20181222	     65.31894170	    -73.48217617	      2.14812714	    -16.78504925
     20.82000000	      0.20179724	     65.32411979	    -73.48490610	      2.15718756	    -16.78351273
     20.83000000	      0.20179259	     65.32991419	    -73.48209483	      2.16057635	    -16.78389809
     20.84000000	      0.20178116	     65.33158950	    -73.47890167	      2.16405884	    -16.78427034
     20.85000000	      0.20178444	     65.37736063	    -73.47330540	      2.15951652	    -16.73376657
     20.86000000	      0.20176682	     65.37799983	    -73.47104057	      2.16134500	    -16.73385068
     20.87000000	      0.20179312	     65.38519463	    -73.45669530	      2.15177516	    -16.72327333
     20.88000000	      0.20179642	     65.42196287	    -73.45256458	      2.14658922	    -16.67256775
     20.89000000	      0.20179490	     65.41701088	    -73.44782873	      2.14478595	    -16.66645994
     20.90000000	      0.20184122	     65.41817738	    -73.43324436	      2.13236803	    -16.65418649
     20.91000000	      0.20186570	     65.44506110	    -73.42781520	      2.12442878	    -16.60576700
     20.92000000	      0.20188068	     65.43621454	    -73.42400841	      2.12093828	    -16.59733432
     20.93000000	      0.20191581	     65.43038532	    -73.41462324	      2.11152227	    -16.58734096
     20.94000000	      0.20192438	     65.42202708	    -73.41419762	      2.10849900	    -16.57939835
     20.95000000	      0.20192919	     65.41424107	    -73.41438036	      2.10496458	    -16.57233527
     20.96000000	      0.20192616	     65.40721177	    -73.41612749	      2.10192839	    -16.56666485
     20.97000000	      0.20191605	     65.40072838	    -73.41973236	      2.09979226	    -16.56237152
     20.98000000	      0.20188120	     65.39304491	    -73.43024083	      2.10279700	    -16.56392489
     20.99000000	      0.20187867	     65.39138394	    -73.43363114	      2.09911448	    -16.56342287
     21.00000000	      0.20184051	     65.37805148	    -73.44685558	      2.10496869	    -16.58223890
     21.01000000	      0.20186568	     65.34976395	    -73.44368385	      2.09888747	    -16.62862207
     21.02000000	      0.20186994	     65.35899371	    -73.44798352	      2.09598894	    -16.63840587
     21.03000000	      0.20187863	     65.37273523	    -73.45130079	      2.09264192	    -16.65365865
     21.04000000	      0.20189755	     65.34324553	    -73.44709263	      2.08955649	    -16.72876409
     21.05000000	      0.20190091	     65.36612277	    -73.44948240	      2.08735451	    -16.75105843
     21.06000000	      0.20191022	     65.35471215	    -73.44507902	      2.08535807	    -16.82091380
     21.07000000	      0.20190490	     65.38350069	    -73.44685109	      2.08551839	    -16.84780418
     21.08000000	      0.20191177	     65.37816561	    -73.44293162	      2.08612041	    -16.91921183
     21.09000000	      0.20190786	     65.41039918	    -73.44450377	      2.08836331	    -16.94865054
     21.10000000	      0.20190588	     65.44279329	    -73.44619684	      2.09190394	    -16.97973261
     21.11000000	      0.20189580	     65.43552252	    -73.44988617	      2.10233793	    -17.05787829
     21.12000000	      0.20187566	     65.46847228	    -73.45953813	      2.11432038	    -17.09081376
     21.13000000	      0.20185141	     65.50144177	    -73.47291223	      2.13015208	    -17.12608691
     21.14000000	      0.20182585	     65.53497387	    -73.48857350	      2.14855091	    -17.16358778
     21.15000000	      0.20180931	     65.57007330	    -73.50478231	      2.16791886	    -17.20147446
     21.16000000	      0.20179063	     65.60695877	    -73.52153583	      2.18941253	    -17.23736984
     21.17000000	      0.20177875	     65.64626725	    -73.53755287	      2.21140205	    -17.26961859
     21.18000000	      0.20176723	     65.68950308	    -73.55323653	      2.23438807	    -17.29614999
     21.19000000	      0.20176928	     65.76820928	    -73.56685936	      2.25295198	    -17.28010634
     21.20000000	      0.20176159	     65.81417426	    -73.58062597	      2.27606810	    -17.30160507
     21.21000000	      0.20177275	     65.91290924	    -73.59006882	      2.29087027	    -17.26268336
     21.22000000	      0.20178722	     65.99112498	    -73.59605348	      2.30535622	    -17.24915907
     21.23000000	      0.20179706	     66.07256300	    -73.60111992	      2.31916828	    -17.23415580
     21.24000000	      0.20180109	     66.15633157	    -73.60567097	      2.33267986	    -17.21951327
     21.25000000	      0.20181352	     66.24078088	    -73.60631018	      2.34304075	    -17.20858832
     21.26000000	      0.20182214	     66.32906847	    -73.60703224	      2.35319016	    -17.19793091
     21.27000000	      0.20182960	     66.38116900	    -73.60554794	      2.36547225	    -17.23623115
     21.28000000	      0.20182833	     66.50811777	    -73.60854605	      2.37426097	    -17.19316419
